G04*
G04 #@! TF.GenerationSoftware,Altium Limited,Altium Designer,22.5.1 (42)*
G04*
G04 Layer_Physical_Order=1*
G04 Layer_Color=255*
%FSLAX25Y25*%
%MOIN*%
G70*
G04*
G04 #@! TF.SameCoordinates,11F32A4F-6B9E-4148-B8DF-231AA1DA3EC5*
G04*
G04*
G04 #@! TF.FilePolarity,Positive*
G04*
G01*
G75*
%ADD12R,0.01772X0.05709*%
%ADD13R,0.01575X0.01968*%
%ADD14R,0.09173X0.07835*%
%ADD15R,0.05787X0.04016*%
%ADD16R,0.02362X0.03150*%
%ADD17R,0.05315X0.03937*%
%ADD23R,0.06102X0.06102*%
%ADD24C,0.06102*%
%ADD27C,0.01500*%
%ADD28C,0.02000*%
%ADD29C,0.01000*%
%ADD30C,0.10453*%
%ADD31C,0.03937*%
%ADD32C,0.03000*%
D12*
X46839Y51760D02*
D03*
X44280D02*
D03*
X41721D02*
D03*
X39161D02*
D03*
Y34240D02*
D03*
X41721D02*
D03*
X44280D02*
D03*
X46839D02*
D03*
D13*
X47075Y24500D02*
D03*
X43925D02*
D03*
Y61000D02*
D03*
X47075D02*
D03*
D14*
X11000Y56350D02*
D03*
Y32650D02*
D03*
D15*
X30500Y39350D02*
D03*
Y45650D02*
D03*
X64500Y39850D02*
D03*
Y46150D02*
D03*
D16*
X78441Y71000D02*
D03*
X83559D02*
D03*
D17*
X56000Y59043D02*
D03*
Y51957D02*
D03*
Y27457D02*
D03*
Y34543D02*
D03*
D23*
X21000Y21000D02*
D03*
X25067Y68079D02*
D03*
D24*
X21000Y11157D02*
D03*
X25067Y77921D02*
D03*
D27*
X39500Y24500D02*
X43925D01*
X40000Y58000D02*
Y61000D01*
Y58000D02*
X41721Y56279D01*
Y51760D02*
Y56279D01*
X40000Y61000D02*
X43925D01*
X30500Y45650D02*
X30650Y45500D01*
X41721Y51760D02*
X44280D01*
X78213Y70772D02*
X78441Y71000D01*
X55898Y59146D02*
Y70772D01*
Y59146D02*
X56000Y59043D01*
X55898Y27354D02*
X56000Y27457D01*
X55898Y16835D02*
Y27354D01*
D28*
X83500Y66000D02*
X83559Y66059D01*
Y71000D01*
X26500Y49650D02*
Y52000D01*
Y49650D02*
X30500Y45650D01*
X8000Y24000D02*
X11000Y27000D01*
Y32650D01*
X38921Y77921D02*
X39000Y78000D01*
X25067Y77921D02*
X38921D01*
X11000Y50000D02*
Y56350D01*
Y50000D02*
X21650Y39350D01*
X30500D01*
X11000Y56350D02*
Y60500D01*
X18579Y68079D02*
X25067D01*
X11000Y60500D02*
X18579Y68079D01*
D29*
X21000Y21000D02*
Y25500D01*
X25500Y30000D02*
X25500D01*
X29740Y34240D02*
X39161D01*
X21000Y25500D02*
X25500Y30000D01*
X25500D02*
X29740Y34240D01*
X39161D02*
X41721D01*
X46839Y51760D02*
X47075Y51996D01*
Y61000D01*
X46839Y34240D02*
X47075Y34004D01*
Y24500D02*
Y34004D01*
X44280Y34240D02*
Y38221D01*
X43150Y39350D02*
X44280Y38221D01*
X30500Y39350D02*
X43150D01*
X56043Y34500D02*
X62000D01*
X64500Y37000D02*
Y39850D01*
X62000Y34500D02*
X64500Y37000D01*
X56000Y34543D02*
X56043Y34500D01*
X64500Y46150D02*
Y49500D01*
X62043Y51957D02*
X64500Y49500D01*
X56000Y51957D02*
X62043D01*
X46839Y34240D02*
X47142Y34543D01*
X56000D01*
X46839Y51760D02*
X55803D01*
X56000Y51957D01*
X55898Y70772D02*
X78213D01*
D30*
X109047Y13291D02*
D03*
Y75102D02*
D03*
X55898Y16835D02*
D03*
Y70772D02*
D03*
D31*
X4000Y4000D02*
D03*
X127500D02*
D03*
X4000Y85000D02*
D03*
X128000Y85500D02*
D03*
D32*
X39500Y24500D02*
D03*
X40000Y61000D02*
D03*
X83500Y66000D02*
D03*
X26500Y52000D02*
D03*
X8000Y24000D02*
D03*
X39000Y78000D02*
D03*
M02*
