G04*
G04 #@! TF.GenerationSoftware,Altium Limited,Altium Designer,22.5.1 (42)*
G04*
G04 Layer_Color=65535*
%FSLAX25Y25*%
%MOIN*%
G70*
G04*
G04 #@! TF.SameCoordinates,11F32A4F-6B9E-4148-B8DF-231AA1DA3EC5*
G04*
G04*
G04 #@! TF.FilePolarity,Positive*
G04*
G01*
G75*
%ADD10C,0.00500*%
%ADD11C,0.00787*%
G36*
X127532Y30140D02*
X123551D01*
Y34121D01*
X124448D01*
Y31037D01*
X126642D01*
Y34121D01*
X127532D01*
Y30140D01*
D02*
G37*
G36*
X124448Y27858D02*
X127532D01*
Y26954D01*
X124448D01*
Y25416D01*
X123551D01*
Y29397D01*
X124448D01*
Y27858D01*
D02*
G37*
G36*
X127532Y23776D02*
X124448D01*
Y21589D01*
X127532D01*
Y20692D01*
X123551D01*
Y24673D01*
X127532D01*
Y23776D01*
D02*
G37*
G36*
Y15969D02*
X123551D01*
Y19949D01*
X124448D01*
Y16865D01*
X125097D01*
Y19183D01*
X125993D01*
Y16865D01*
X126642D01*
Y19949D01*
X127532D01*
Y15969D01*
D02*
G37*
G36*
X27045Y36484D02*
X27106Y36479D01*
X27173Y36467D01*
X27251Y36456D01*
X27334Y36440D01*
X27423Y36417D01*
X27517Y36390D01*
X27612Y36356D01*
X27711Y36312D01*
X27806Y36268D01*
X27894Y36212D01*
X27989Y36146D01*
X28072Y36073D01*
X28078D01*
X28083Y36062D01*
X28100Y36046D01*
X28117Y36029D01*
X28139Y36001D01*
X28161Y35968D01*
X28222Y35890D01*
X28283Y35790D01*
X28350Y35668D01*
X28411Y35530D01*
X28466Y35369D01*
X27700Y35185D01*
Y35191D01*
X27695Y35197D01*
Y35213D01*
X27684Y35235D01*
X27667Y35285D01*
X27639Y35352D01*
X27600Y35430D01*
X27551Y35507D01*
X27484Y35585D01*
X27412Y35652D01*
X27401Y35657D01*
X27373Y35679D01*
X27328Y35707D01*
X27267Y35740D01*
X27190Y35774D01*
X27101Y35802D01*
X27001Y35824D01*
X26890Y35829D01*
X26851D01*
X26818Y35824D01*
X26785Y35818D01*
X26740Y35813D01*
X26646Y35790D01*
X26535Y35752D01*
X26418Y35696D01*
X26357Y35663D01*
X26302Y35624D01*
X26246Y35574D01*
X26196Y35518D01*
Y35513D01*
X26185Y35502D01*
X26174Y35485D01*
X26157Y35457D01*
X26135Y35424D01*
X26113Y35385D01*
X26091Y35335D01*
X26069Y35280D01*
X26041Y35213D01*
X26019Y35141D01*
X25996Y35058D01*
X25974Y34969D01*
X25958Y34869D01*
X25947Y34764D01*
X25941Y34647D01*
X25935Y34519D01*
Y34514D01*
Y34486D01*
Y34447D01*
X25941Y34403D01*
Y34342D01*
X25952Y34270D01*
X25958Y34198D01*
X25969Y34114D01*
X26002Y33942D01*
X26046Y33770D01*
X26074Y33687D01*
X26113Y33609D01*
X26152Y33537D01*
X26196Y33476D01*
X26202Y33470D01*
X26207Y33465D01*
X26224Y33448D01*
X26246Y33426D01*
X26302Y33382D01*
X26379Y33326D01*
X26474Y33265D01*
X26590Y33221D01*
X26724Y33182D01*
X26796Y33176D01*
X26873Y33171D01*
X26901D01*
X26923Y33176D01*
X26984Y33182D01*
X27057Y33193D01*
X27134Y33221D01*
X27223Y33254D01*
X27312Y33298D01*
X27401Y33365D01*
X27412Y33376D01*
X27439Y33404D01*
X27478Y33448D01*
X27523Y33515D01*
X27578Y33604D01*
X27628Y33709D01*
X27678Y33837D01*
X27722Y33987D01*
X28477Y33753D01*
Y33748D01*
X28472Y33726D01*
X28461Y33692D01*
X28444Y33648D01*
X28422Y33598D01*
X28400Y33537D01*
X28372Y33470D01*
X28339Y33398D01*
X28261Y33248D01*
X28161Y33093D01*
X28039Y32943D01*
X27972Y32877D01*
X27900Y32816D01*
X27894Y32810D01*
X27883Y32805D01*
X27861Y32788D01*
X27828Y32766D01*
X27789Y32743D01*
X27739Y32721D01*
X27684Y32693D01*
X27623Y32666D01*
X27551Y32632D01*
X27473Y32605D01*
X27389Y32583D01*
X27301Y32560D01*
X27206Y32538D01*
X27101Y32521D01*
X26995Y32516D01*
X26879Y32510D01*
X26846D01*
X26807Y32516D01*
X26751Y32521D01*
X26690Y32527D01*
X26612Y32538D01*
X26529Y32555D01*
X26435Y32577D01*
X26341Y32605D01*
X26241Y32638D01*
X26135Y32682D01*
X26030Y32732D01*
X25924Y32788D01*
X25819Y32860D01*
X25719Y32938D01*
X25625Y33032D01*
X25619Y33038D01*
X25602Y33054D01*
X25580Y33088D01*
X25547Y33126D01*
X25514Y33182D01*
X25469Y33243D01*
X25425Y33321D01*
X25380Y33409D01*
X25336Y33504D01*
X25292Y33609D01*
X25247Y33731D01*
X25214Y33859D01*
X25181Y33992D01*
X25158Y34142D01*
X25142Y34297D01*
X25136Y34464D01*
Y34470D01*
Y34475D01*
Y34508D01*
X25142Y34558D01*
Y34625D01*
X25153Y34703D01*
X25164Y34797D01*
X25175Y34897D01*
X25197Y35013D01*
X25225Y35130D01*
X25258Y35252D01*
X25297Y35374D01*
X25347Y35502D01*
X25403Y35624D01*
X25469Y35740D01*
X25541Y35851D01*
X25630Y35957D01*
X25636Y35962D01*
X25652Y35979D01*
X25680Y36007D01*
X25719Y36040D01*
X25769Y36079D01*
X25830Y36123D01*
X25897Y36173D01*
X25980Y36223D01*
X26069Y36273D01*
X26163Y36323D01*
X26274Y36368D01*
X26385Y36406D01*
X26513Y36440D01*
X26640Y36467D01*
X26785Y36484D01*
X26929Y36490D01*
X26995D01*
X27045Y36484D01*
D02*
G37*
G36*
X30864Y32577D02*
X30126D01*
Y35357D01*
X30120Y35352D01*
X30109Y35341D01*
X30087Y35324D01*
X30053Y35296D01*
X30015Y35263D01*
X29970Y35230D01*
X29915Y35191D01*
X29854Y35147D01*
X29787Y35102D01*
X29715Y35058D01*
X29637Y35008D01*
X29554Y34963D01*
X29376Y34880D01*
X29177Y34802D01*
Y35469D01*
X29182D01*
X29188Y35474D01*
X29204Y35480D01*
X29226Y35485D01*
X29282Y35513D01*
X29360Y35546D01*
X29454Y35591D01*
X29560Y35652D01*
X29676Y35729D01*
X29798Y35818D01*
X29804Y35824D01*
X29815Y35829D01*
X29831Y35846D01*
X29854Y35868D01*
X29915Y35924D01*
X29981Y35996D01*
X30059Y36084D01*
X30137Y36195D01*
X30209Y36312D01*
X30264Y36440D01*
X30864D01*
Y32577D01*
D02*
G37*
G36*
X32764Y52920D02*
Y52914D01*
Y52892D01*
Y52853D01*
Y52808D01*
Y52753D01*
X32758Y52686D01*
Y52614D01*
Y52542D01*
X32747Y52381D01*
X32736Y52215D01*
X32730Y52143D01*
X32719Y52070D01*
X32708Y52004D01*
X32697Y51943D01*
Y51937D01*
X32691Y51932D01*
Y51915D01*
X32686Y51898D01*
X32669Y51843D01*
X32647Y51776D01*
X32614Y51698D01*
X32575Y51621D01*
X32525Y51538D01*
X32464Y51460D01*
X32458Y51449D01*
X32436Y51427D01*
X32397Y51393D01*
X32347Y51349D01*
X32281Y51299D01*
X32203Y51249D01*
X32114Y51193D01*
X32014Y51149D01*
X32009D01*
X32003Y51143D01*
X31987Y51138D01*
X31964Y51132D01*
X31937Y51121D01*
X31903Y51110D01*
X31859Y51099D01*
X31815Y51094D01*
X31709Y51071D01*
X31582Y51049D01*
X31437Y51038D01*
X31276Y51033D01*
X31187D01*
X31137Y51038D01*
X31087D01*
X31027Y51044D01*
X30965Y51049D01*
X30832Y51060D01*
X30694Y51082D01*
X30555Y51116D01*
X30494Y51132D01*
X30438Y51155D01*
X30433D01*
X30427Y51160D01*
X30394Y51177D01*
X30338Y51205D01*
X30277Y51243D01*
X30205Y51293D01*
X30127Y51349D01*
X30055Y51415D01*
X29989Y51488D01*
X29983Y51499D01*
X29961Y51521D01*
X29933Y51565D01*
X29900Y51621D01*
X29866Y51682D01*
X29828Y51754D01*
X29800Y51832D01*
X29772Y51915D01*
Y51920D01*
X29767Y51932D01*
Y51948D01*
X29761Y51976D01*
X29755Y52009D01*
X29750Y52054D01*
X29744Y52104D01*
X29739Y52159D01*
X29728Y52226D01*
X29722Y52298D01*
X29717Y52376D01*
X29711Y52464D01*
X29706Y52559D01*
Y52664D01*
X29700Y52775D01*
Y52892D01*
Y54945D01*
X30477D01*
Y52859D01*
Y52853D01*
Y52836D01*
Y52814D01*
Y52781D01*
Y52736D01*
Y52692D01*
X30483Y52592D01*
Y52481D01*
X30488Y52376D01*
X30494Y52326D01*
Y52281D01*
X30499Y52248D01*
X30505Y52215D01*
Y52204D01*
X30516Y52176D01*
X30533Y52131D01*
X30555Y52076D01*
X30582Y52015D01*
X30627Y51954D01*
X30677Y51887D01*
X30738Y51832D01*
X30749Y51826D01*
X30771Y51810D01*
X30816Y51787D01*
X30871Y51765D01*
X30949Y51737D01*
X31038Y51715D01*
X31137Y51698D01*
X31254Y51693D01*
X31310D01*
X31365Y51698D01*
X31437Y51710D01*
X31520Y51726D01*
X31598Y51749D01*
X31681Y51782D01*
X31748Y51826D01*
X31754Y51832D01*
X31776Y51848D01*
X31804Y51876D01*
X31837Y51915D01*
X31870Y51965D01*
X31903Y52020D01*
X31931Y52082D01*
X31948Y52154D01*
Y52165D01*
X31953Y52192D01*
X31959Y52242D01*
X31970Y52309D01*
Y52353D01*
X31975Y52403D01*
Y52459D01*
X31981Y52514D01*
Y52581D01*
X31987Y52653D01*
Y52731D01*
Y52814D01*
Y54945D01*
X32764D01*
Y52920D01*
D02*
G37*
G36*
X35300Y51105D02*
X34562D01*
Y53885D01*
X34556Y53880D01*
X34545Y53869D01*
X34523Y53852D01*
X34490Y53824D01*
X34451Y53791D01*
X34406Y53758D01*
X34351Y53719D01*
X34290Y53674D01*
X34223Y53630D01*
X34151Y53585D01*
X34073Y53536D01*
X33990Y53491D01*
X33813Y53408D01*
X33613Y53330D01*
Y53996D01*
X33618D01*
X33624Y54002D01*
X33641Y54007D01*
X33663Y54013D01*
X33718Y54041D01*
X33796Y54074D01*
X33890Y54118D01*
X33996Y54179D01*
X34112Y54257D01*
X34234Y54346D01*
X34240Y54351D01*
X34251Y54357D01*
X34268Y54374D01*
X34290Y54396D01*
X34351Y54451D01*
X34418Y54523D01*
X34495Y54612D01*
X34573Y54723D01*
X34645Y54840D01*
X34701Y54967D01*
X35300D01*
Y51105D01*
D02*
G37*
G36*
X70890Y73462D02*
X70940Y73456D01*
X70990Y73451D01*
X71051Y73440D01*
X71112Y73423D01*
X71250Y73384D01*
X71323Y73356D01*
X71400Y73318D01*
X71473Y73279D01*
X71539Y73234D01*
X71611Y73179D01*
X71672Y73118D01*
X71678Y73112D01*
X71683Y73107D01*
X71700Y73090D01*
X71717Y73068D01*
X71761Y73012D01*
X71811Y72935D01*
X71861Y72840D01*
X71900Y72729D01*
X71933Y72607D01*
X71939Y72546D01*
X71944Y72480D01*
Y72474D01*
Y72457D01*
X71939Y72430D01*
X71933Y72396D01*
X71928Y72352D01*
X71917Y72302D01*
X71900Y72246D01*
X71878Y72185D01*
X71844Y72124D01*
X71811Y72058D01*
X71767Y71991D01*
X71711Y71925D01*
X71645Y71858D01*
X71572Y71791D01*
X71489Y71730D01*
X71389Y71669D01*
X71395D01*
X71406Y71664D01*
X71423D01*
X71445Y71653D01*
X71506Y71636D01*
X71578Y71603D01*
X71661Y71558D01*
X71750Y71503D01*
X71839Y71431D01*
X71917Y71347D01*
X71928Y71336D01*
X71950Y71303D01*
X71978Y71253D01*
X72016Y71181D01*
X72055Y71098D01*
X72083Y70992D01*
X72105Y70881D01*
X72116Y70754D01*
Y70748D01*
Y70731D01*
Y70704D01*
X72111Y70670D01*
X72105Y70626D01*
X72094Y70576D01*
X72083Y70515D01*
X72072Y70454D01*
X72027Y70321D01*
X71994Y70249D01*
X71961Y70171D01*
X71917Y70099D01*
X71867Y70026D01*
X71811Y69954D01*
X71745Y69888D01*
X71739Y69882D01*
X71728Y69871D01*
X71706Y69854D01*
X71678Y69832D01*
X71639Y69805D01*
X71600Y69777D01*
X71545Y69743D01*
X71489Y69710D01*
X71428Y69677D01*
X71356Y69643D01*
X71278Y69616D01*
X71201Y69588D01*
X71112Y69566D01*
X71023Y69549D01*
X70923Y69538D01*
X70823Y69533D01*
X70773D01*
X70734Y69538D01*
X70690Y69544D01*
X70640Y69549D01*
X70584Y69560D01*
X70518Y69571D01*
X70385Y69605D01*
X70240Y69660D01*
X70163Y69693D01*
X70096Y69732D01*
X70024Y69782D01*
X69957Y69832D01*
X69952Y69838D01*
X69941Y69849D01*
X69924Y69866D01*
X69902Y69888D01*
X69874Y69915D01*
X69846Y69954D01*
X69813Y69993D01*
X69780Y70043D01*
X69747Y70099D01*
X69708Y70154D01*
X69647Y70287D01*
X69597Y70443D01*
X69574Y70526D01*
X69563Y70615D01*
X70274Y70704D01*
Y70698D01*
Y70692D01*
X70279Y70659D01*
X70290Y70609D01*
X70307Y70548D01*
X70335Y70482D01*
X70363Y70409D01*
X70407Y70343D01*
X70457Y70282D01*
X70462Y70276D01*
X70485Y70260D01*
X70518Y70237D01*
X70557Y70215D01*
X70612Y70187D01*
X70673Y70165D01*
X70740Y70149D01*
X70818Y70143D01*
X70829D01*
X70856Y70149D01*
X70895Y70154D01*
X70951Y70165D01*
X71012Y70187D01*
X71073Y70215D01*
X71140Y70260D01*
X71201Y70315D01*
X71206Y70321D01*
X71228Y70348D01*
X71250Y70387D01*
X71284Y70437D01*
X71312Y70504D01*
X71339Y70587D01*
X71356Y70681D01*
X71362Y70787D01*
Y70792D01*
Y70798D01*
Y70831D01*
X71356Y70881D01*
X71345Y70948D01*
X71323Y71020D01*
X71295Y71092D01*
X71256Y71164D01*
X71206Y71231D01*
X71201Y71236D01*
X71178Y71259D01*
X71145Y71286D01*
X71106Y71314D01*
X71051Y71347D01*
X70990Y71370D01*
X70923Y71392D01*
X70845Y71397D01*
X70790D01*
X70751Y71392D01*
X70701Y71386D01*
X70640Y71375D01*
X70579Y71359D01*
X70507Y71342D01*
X70584Y71936D01*
X70635D01*
X70690Y71941D01*
X70757Y71947D01*
X70829Y71963D01*
X70906Y71986D01*
X70979Y72019D01*
X71045Y72063D01*
X71051Y72069D01*
X71073Y72091D01*
X71095Y72119D01*
X71128Y72163D01*
X71156Y72213D01*
X71184Y72274D01*
X71201Y72346D01*
X71206Y72430D01*
Y72441D01*
Y72463D01*
X71201Y72496D01*
X71189Y72541D01*
X71178Y72591D01*
X71156Y72641D01*
X71128Y72696D01*
X71090Y72740D01*
X71084Y72746D01*
X71067Y72757D01*
X71045Y72779D01*
X71006Y72802D01*
X70962Y72818D01*
X70912Y72840D01*
X70845Y72851D01*
X70779Y72857D01*
X70745D01*
X70712Y72851D01*
X70668Y72840D01*
X70618Y72824D01*
X70562Y72802D01*
X70507Y72768D01*
X70457Y72724D01*
X70451Y72718D01*
X70435Y72702D01*
X70412Y72668D01*
X70385Y72624D01*
X70357Y72574D01*
X70335Y72507D01*
X70313Y72430D01*
X70296Y72341D01*
X69619Y72452D01*
Y72457D01*
X69624Y72469D01*
Y72485D01*
X69630Y72513D01*
X69647Y72574D01*
X69669Y72657D01*
X69702Y72746D01*
X69735Y72840D01*
X69780Y72929D01*
X69830Y73012D01*
X69835Y73023D01*
X69858Y73046D01*
X69891Y73084D01*
X69935Y73134D01*
X69991Y73184D01*
X70057Y73240D01*
X70140Y73295D01*
X70229Y73345D01*
X70235D01*
X70240Y73351D01*
X70274Y73362D01*
X70329Y73384D01*
X70396Y73406D01*
X70479Y73429D01*
X70579Y73451D01*
X70684Y73462D01*
X70801Y73467D01*
X70851D01*
X70890Y73462D01*
D02*
G37*
G36*
X67665Y73440D02*
X67726D01*
X67787Y73434D01*
X67860D01*
X68004Y73418D01*
X68154Y73401D01*
X68292Y73373D01*
X68353Y73356D01*
X68409Y73340D01*
X68414D01*
X68420Y73334D01*
X68453Y73318D01*
X68503Y73290D01*
X68570Y73257D01*
X68642Y73201D01*
X68714Y73140D01*
X68786Y73062D01*
X68853Y72968D01*
Y72962D01*
X68858Y72957D01*
X68870Y72940D01*
X68881Y72924D01*
X68908Y72868D01*
X68942Y72796D01*
X68970Y72707D01*
X68997Y72607D01*
X69019Y72491D01*
X69025Y72369D01*
Y72363D01*
Y72352D01*
Y72324D01*
X69019Y72296D01*
Y72258D01*
X69014Y72219D01*
X68992Y72119D01*
X68964Y72002D01*
X68919Y71886D01*
X68853Y71764D01*
X68814Y71708D01*
X68770Y71653D01*
X68764Y71647D01*
X68759Y71641D01*
X68742Y71625D01*
X68720Y71608D01*
X68698Y71586D01*
X68664Y71558D01*
X68625Y71530D01*
X68581Y71503D01*
X68531Y71469D01*
X68470Y71442D01*
X68409Y71414D01*
X68342Y71386D01*
X68265Y71359D01*
X68187Y71336D01*
X68104Y71314D01*
X68009Y71297D01*
X68015D01*
X68020Y71292D01*
X68054Y71270D01*
X68098Y71242D01*
X68154Y71203D01*
X68220Y71153D01*
X68287Y71103D01*
X68359Y71042D01*
X68420Y70976D01*
X68426Y70970D01*
X68453Y70942D01*
X68487Y70898D01*
X68537Y70831D01*
X68603Y70748D01*
X68637Y70692D01*
X68675Y70637D01*
X68720Y70576D01*
X68764Y70509D01*
X68814Y70432D01*
X68864Y70354D01*
X69336Y69605D01*
X68403D01*
X67848Y70437D01*
X67843Y70443D01*
X67837Y70459D01*
X67821Y70482D01*
X67798Y70509D01*
X67776Y70543D01*
X67748Y70587D01*
X67687Y70676D01*
X67615Y70776D01*
X67549Y70864D01*
X67488Y70948D01*
X67460Y70976D01*
X67438Y71003D01*
X67432Y71009D01*
X67421Y71020D01*
X67399Y71042D01*
X67371Y71070D01*
X67332Y71092D01*
X67293Y71120D01*
X67249Y71142D01*
X67205Y71164D01*
X67199D01*
X67182Y71170D01*
X67155Y71181D01*
X67110Y71186D01*
X67055Y71197D01*
X66988Y71203D01*
X66910Y71209D01*
X66661D01*
Y69605D01*
X65884D01*
Y73445D01*
X67615D01*
X67665Y73440D01*
D02*
G37*
G36*
X65470Y57926D02*
X65520Y57920D01*
X65576Y57915D01*
X65637Y57904D01*
X65703Y57893D01*
X65848Y57854D01*
X65992Y57798D01*
X66070Y57765D01*
X66136Y57726D01*
X66208Y57676D01*
X66269Y57621D01*
X66275Y57615D01*
X66286Y57609D01*
X66297Y57587D01*
X66319Y57565D01*
X66347Y57537D01*
X66375Y57499D01*
X66403Y57460D01*
X66436Y57410D01*
X66491Y57299D01*
X66547Y57171D01*
X66569Y57099D01*
X66580Y57021D01*
X66591Y56938D01*
X66597Y56855D01*
Y56844D01*
Y56810D01*
X66591Y56760D01*
X66586Y56699D01*
X66575Y56622D01*
X66558Y56538D01*
X66536Y56450D01*
X66502Y56361D01*
X66497Y56350D01*
X66486Y56322D01*
X66464Y56272D01*
X66430Y56211D01*
X66391Y56139D01*
X66342Y56055D01*
X66281Y55967D01*
X66208Y55872D01*
X66203Y55867D01*
X66181Y55839D01*
X66147Y55800D01*
X66097Y55745D01*
X66031Y55678D01*
X65948Y55589D01*
X65848Y55495D01*
X65725Y55378D01*
X65720Y55373D01*
X65709Y55367D01*
X65692Y55351D01*
X65670Y55328D01*
X65609Y55273D01*
X65537Y55206D01*
X65465Y55134D01*
X65393Y55062D01*
X65326Y55001D01*
X65304Y54973D01*
X65282Y54951D01*
X65276Y54945D01*
X65265Y54934D01*
X65248Y54912D01*
X65226Y54884D01*
X65176Y54823D01*
X65132Y54751D01*
X66597D01*
Y54069D01*
X64016D01*
Y54074D01*
Y54085D01*
X64022Y54107D01*
X64027Y54135D01*
X64033Y54168D01*
X64038Y54207D01*
X64061Y54307D01*
X64094Y54418D01*
X64138Y54540D01*
X64194Y54674D01*
X64266Y54801D01*
Y54807D01*
X64277Y54818D01*
X64288Y54840D01*
X64310Y54862D01*
X64332Y54901D01*
X64366Y54940D01*
X64405Y54990D01*
X64449Y55045D01*
X64499Y55112D01*
X64560Y55179D01*
X64627Y55256D01*
X64704Y55339D01*
X64788Y55423D01*
X64882Y55517D01*
X64982Y55617D01*
X65093Y55722D01*
X65098Y55728D01*
X65115Y55745D01*
X65137Y55767D01*
X65171Y55800D01*
X65215Y55834D01*
X65259Y55878D01*
X65359Y55978D01*
X65459Y56083D01*
X65559Y56189D01*
X65603Y56233D01*
X65648Y56283D01*
X65681Y56322D01*
X65703Y56355D01*
X65709Y56366D01*
X65725Y56394D01*
X65753Y56438D01*
X65781Y56499D01*
X65809Y56566D01*
X65837Y56644D01*
X65853Y56722D01*
X65859Y56805D01*
Y56810D01*
Y56816D01*
Y56844D01*
X65853Y56894D01*
X65842Y56949D01*
X65825Y57010D01*
X65803Y57071D01*
X65770Y57132D01*
X65725Y57188D01*
X65720Y57193D01*
X65703Y57210D01*
X65670Y57232D01*
X65631Y57254D01*
X65576Y57276D01*
X65515Y57299D01*
X65443Y57315D01*
X65359Y57321D01*
X65320D01*
X65276Y57315D01*
X65226Y57304D01*
X65165Y57288D01*
X65104Y57260D01*
X65043Y57227D01*
X64987Y57182D01*
X64982Y57177D01*
X64965Y57154D01*
X64943Y57121D01*
X64921Y57071D01*
X64893Y57010D01*
X64871Y56927D01*
X64849Y56832D01*
X64837Y56722D01*
X64105Y56794D01*
Y56799D01*
X64110Y56821D01*
Y56849D01*
X64122Y56894D01*
X64127Y56944D01*
X64144Y56999D01*
X64161Y57060D01*
X64177Y57132D01*
X64233Y57271D01*
X64299Y57415D01*
X64344Y57487D01*
X64394Y57554D01*
X64449Y57609D01*
X64510Y57665D01*
X64516Y57671D01*
X64527Y57676D01*
X64543Y57687D01*
X64571Y57709D01*
X64604Y57726D01*
X64649Y57748D01*
X64693Y57776D01*
X64749Y57798D01*
X64810Y57826D01*
X64876Y57848D01*
X65021Y57893D01*
X65193Y57920D01*
X65282Y57926D01*
X65376Y57931D01*
X65431D01*
X65470Y57926D01*
D02*
G37*
G36*
X62185Y57904D02*
X62246D01*
X62307Y57898D01*
X62379D01*
X62523Y57881D01*
X62673Y57865D01*
X62812Y57837D01*
X62873Y57820D01*
X62928Y57804D01*
X62934D01*
X62939Y57798D01*
X62973Y57782D01*
X63023Y57754D01*
X63089Y57721D01*
X63161Y57665D01*
X63234Y57604D01*
X63306Y57526D01*
X63372Y57432D01*
Y57426D01*
X63378Y57421D01*
X63389Y57404D01*
X63400Y57388D01*
X63428Y57332D01*
X63461Y57260D01*
X63489Y57171D01*
X63517Y57071D01*
X63539Y56955D01*
X63544Y56832D01*
Y56827D01*
Y56816D01*
Y56788D01*
X63539Y56760D01*
Y56722D01*
X63533Y56683D01*
X63511Y56583D01*
X63483Y56466D01*
X63439Y56350D01*
X63372Y56227D01*
X63333Y56172D01*
X63289Y56116D01*
X63284Y56111D01*
X63278Y56105D01*
X63261Y56089D01*
X63239Y56072D01*
X63217Y56050D01*
X63184Y56022D01*
X63145Y55994D01*
X63100Y55967D01*
X63051Y55933D01*
X62989Y55906D01*
X62928Y55878D01*
X62862Y55850D01*
X62784Y55822D01*
X62706Y55800D01*
X62623Y55778D01*
X62529Y55761D01*
X62534D01*
X62540Y55756D01*
X62573Y55734D01*
X62618Y55706D01*
X62673Y55667D01*
X62740Y55617D01*
X62806Y55567D01*
X62878Y55506D01*
X62939Y55439D01*
X62945Y55434D01*
X62973Y55406D01*
X63006Y55362D01*
X63056Y55295D01*
X63123Y55212D01*
X63156Y55156D01*
X63195Y55101D01*
X63239Y55040D01*
X63284Y54973D01*
X63333Y54896D01*
X63384Y54818D01*
X63855Y54069D01*
X62923D01*
X62368Y54901D01*
X62362Y54907D01*
X62357Y54923D01*
X62340Y54945D01*
X62318Y54973D01*
X62296Y55007D01*
X62268Y55051D01*
X62207Y55140D01*
X62135Y55240D01*
X62068Y55328D01*
X62007Y55412D01*
X61979Y55439D01*
X61957Y55467D01*
X61952Y55473D01*
X61940Y55484D01*
X61918Y55506D01*
X61891Y55534D01*
X61852Y55556D01*
X61813Y55584D01*
X61768Y55606D01*
X61724Y55628D01*
X61718D01*
X61702Y55634D01*
X61674Y55645D01*
X61630Y55650D01*
X61574Y55661D01*
X61508Y55667D01*
X61430Y55673D01*
X61180D01*
Y54069D01*
X60403D01*
Y57909D01*
X62135D01*
X62185Y57904D01*
D02*
G37*
G36*
X66294Y30069D02*
X65556D01*
Y32849D01*
X65551Y32844D01*
X65540Y32833D01*
X65517Y32816D01*
X65484Y32788D01*
X65445Y32755D01*
X65401Y32721D01*
X65345Y32683D01*
X65284Y32638D01*
X65218Y32594D01*
X65146Y32550D01*
X65068Y32500D01*
X64985Y32455D01*
X64807Y32372D01*
X64607Y32294D01*
Y32960D01*
X64613D01*
X64618Y32966D01*
X64635Y32971D01*
X64657Y32977D01*
X64713Y33005D01*
X64790Y33038D01*
X64885Y33082D01*
X64990Y33143D01*
X65107Y33221D01*
X65229Y33310D01*
X65234Y33315D01*
X65245Y33321D01*
X65262Y33338D01*
X65284Y33360D01*
X65345Y33415D01*
X65412Y33487D01*
X65490Y33576D01*
X65567Y33687D01*
X65640Y33804D01*
X65695Y33931D01*
X66294D01*
Y30069D01*
D02*
G37*
G36*
X62487Y33904D02*
X62548D01*
X62609Y33898D01*
X62681D01*
X62826Y33882D01*
X62976Y33865D01*
X63114Y33837D01*
X63175Y33820D01*
X63231Y33804D01*
X63236D01*
X63242Y33798D01*
X63275Y33781D01*
X63325Y33754D01*
X63392Y33720D01*
X63464Y33665D01*
X63536Y33604D01*
X63608Y33526D01*
X63675Y33432D01*
Y33426D01*
X63680Y33421D01*
X63692Y33404D01*
X63703Y33388D01*
X63730Y33332D01*
X63764Y33260D01*
X63791Y33171D01*
X63819Y33071D01*
X63841Y32955D01*
X63847Y32833D01*
Y32827D01*
Y32816D01*
Y32788D01*
X63841Y32760D01*
Y32721D01*
X63836Y32683D01*
X63814Y32583D01*
X63786Y32466D01*
X63741Y32350D01*
X63675Y32228D01*
X63636Y32172D01*
X63592Y32117D01*
X63586Y32111D01*
X63581Y32105D01*
X63564Y32089D01*
X63542Y32072D01*
X63519Y32050D01*
X63486Y32022D01*
X63447Y31995D01*
X63403Y31967D01*
X63353Y31933D01*
X63292Y31906D01*
X63231Y31878D01*
X63164Y31850D01*
X63086Y31822D01*
X63009Y31800D01*
X62926Y31778D01*
X62831Y31761D01*
X62837D01*
X62842Y31756D01*
X62876Y31734D01*
X62920Y31706D01*
X62976Y31667D01*
X63042Y31617D01*
X63109Y31567D01*
X63181Y31506D01*
X63242Y31439D01*
X63248Y31434D01*
X63275Y31406D01*
X63309Y31362D01*
X63358Y31295D01*
X63425Y31212D01*
X63458Y31156D01*
X63497Y31101D01*
X63542Y31040D01*
X63586Y30973D01*
X63636Y30896D01*
X63686Y30818D01*
X64158Y30069D01*
X63225D01*
X62670Y30901D01*
X62665Y30907D01*
X62659Y30923D01*
X62643Y30946D01*
X62620Y30973D01*
X62598Y31007D01*
X62570Y31051D01*
X62509Y31140D01*
X62437Y31240D01*
X62371Y31328D01*
X62309Y31412D01*
X62282Y31439D01*
X62260Y31467D01*
X62254Y31473D01*
X62243Y31484D01*
X62221Y31506D01*
X62193Y31534D01*
X62154Y31556D01*
X62115Y31584D01*
X62071Y31606D01*
X62027Y31628D01*
X62021D01*
X62004Y31634D01*
X61976Y31645D01*
X61932Y31650D01*
X61877Y31661D01*
X61810Y31667D01*
X61732Y31673D01*
X61483D01*
Y30069D01*
X60706D01*
Y33909D01*
X62437D01*
X62487Y33904D01*
D02*
G37*
G36*
X41687Y68987D02*
X41748Y68981D01*
X41815Y68970D01*
X41893Y68959D01*
X41976Y68942D01*
X42065Y68920D01*
X42159Y68893D01*
X42254Y68859D01*
X42353Y68815D01*
X42448Y68770D01*
X42537Y68715D01*
X42631Y68648D01*
X42714Y68576D01*
X42720D01*
X42725Y68565D01*
X42742Y68549D01*
X42759Y68532D01*
X42781Y68504D01*
X42803Y68471D01*
X42864Y68393D01*
X42925Y68293D01*
X42992Y68171D01*
X43053Y68032D01*
X43108Y67871D01*
X42342Y67688D01*
Y67694D01*
X42337Y67699D01*
Y67716D01*
X42326Y67738D01*
X42309Y67788D01*
X42281Y67855D01*
X42242Y67932D01*
X42193Y68010D01*
X42126Y68088D01*
X42054Y68154D01*
X42043Y68160D01*
X42015Y68182D01*
X41971Y68210D01*
X41909Y68243D01*
X41832Y68277D01*
X41743Y68304D01*
X41643Y68326D01*
X41532Y68332D01*
X41493D01*
X41460Y68326D01*
X41427Y68321D01*
X41382Y68315D01*
X41288Y68293D01*
X41177Y68254D01*
X41060Y68199D01*
X40999Y68165D01*
X40944Y68127D01*
X40888Y68077D01*
X40838Y68021D01*
Y68016D01*
X40827Y68005D01*
X40816Y67988D01*
X40799Y67960D01*
X40777Y67927D01*
X40755Y67888D01*
X40733Y67838D01*
X40711Y67783D01*
X40683Y67716D01*
X40661Y67644D01*
X40639Y67561D01*
X40616Y67472D01*
X40600Y67372D01*
X40589Y67266D01*
X40583Y67150D01*
X40577Y67022D01*
Y67017D01*
Y66989D01*
Y66950D01*
X40583Y66906D01*
Y66845D01*
X40594Y66773D01*
X40600Y66700D01*
X40611Y66617D01*
X40644Y66445D01*
X40688Y66273D01*
X40716Y66190D01*
X40755Y66112D01*
X40794Y66040D01*
X40838Y65979D01*
X40844Y65973D01*
X40849Y65968D01*
X40866Y65951D01*
X40888Y65929D01*
X40944Y65885D01*
X41021Y65829D01*
X41116Y65768D01*
X41232Y65724D01*
X41366Y65685D01*
X41438Y65679D01*
X41515Y65674D01*
X41543D01*
X41565Y65679D01*
X41626Y65685D01*
X41699Y65696D01*
X41776Y65724D01*
X41865Y65757D01*
X41954Y65801D01*
X42043Y65868D01*
X42054Y65879D01*
X42081Y65907D01*
X42120Y65951D01*
X42165Y66018D01*
X42220Y66106D01*
X42270Y66212D01*
X42320Y66339D01*
X42364Y66489D01*
X43119Y66256D01*
Y66251D01*
X43114Y66228D01*
X43103Y66195D01*
X43086Y66151D01*
X43064Y66101D01*
X43042Y66040D01*
X43014Y65973D01*
X42981Y65901D01*
X42903Y65751D01*
X42803Y65596D01*
X42681Y65446D01*
X42614Y65379D01*
X42542Y65318D01*
X42537Y65313D01*
X42526Y65307D01*
X42503Y65291D01*
X42470Y65268D01*
X42431Y65246D01*
X42381Y65224D01*
X42326Y65196D01*
X42265Y65168D01*
X42193Y65135D01*
X42115Y65107D01*
X42031Y65085D01*
X41943Y65063D01*
X41848Y65041D01*
X41743Y65024D01*
X41638Y65019D01*
X41521Y65013D01*
X41488D01*
X41449Y65019D01*
X41393Y65024D01*
X41332Y65030D01*
X41254Y65041D01*
X41171Y65057D01*
X41077Y65080D01*
X40983Y65107D01*
X40883Y65141D01*
X40777Y65185D01*
X40672Y65235D01*
X40566Y65291D01*
X40461Y65363D01*
X40361Y65440D01*
X40267Y65535D01*
X40261Y65540D01*
X40244Y65557D01*
X40222Y65590D01*
X40189Y65629D01*
X40156Y65685D01*
X40111Y65746D01*
X40067Y65823D01*
X40022Y65912D01*
X39978Y66007D01*
X39934Y66112D01*
X39889Y66234D01*
X39856Y66362D01*
X39823Y66495D01*
X39800Y66645D01*
X39784Y66800D01*
X39778Y66967D01*
Y66972D01*
Y66978D01*
Y67011D01*
X39784Y67061D01*
Y67128D01*
X39795Y67205D01*
X39806Y67300D01*
X39817Y67400D01*
X39839Y67516D01*
X39867Y67633D01*
X39900Y67755D01*
X39939Y67877D01*
X39989Y68005D01*
X40045Y68127D01*
X40111Y68243D01*
X40183Y68354D01*
X40272Y68460D01*
X40278Y68465D01*
X40294Y68482D01*
X40322Y68510D01*
X40361Y68543D01*
X40411Y68582D01*
X40472Y68626D01*
X40539Y68676D01*
X40622Y68726D01*
X40711Y68776D01*
X40805Y68826D01*
X40916Y68870D01*
X41027Y68909D01*
X41155Y68942D01*
X41282Y68970D01*
X41427Y68987D01*
X41571Y68992D01*
X41638D01*
X41687Y68987D01*
D02*
G37*
G36*
X46050Y68182D02*
X44657D01*
X44540Y67527D01*
X44546D01*
X44551Y67533D01*
X44585Y67550D01*
X44635Y67566D01*
X44695Y67594D01*
X44773Y67616D01*
X44857Y67633D01*
X44951Y67649D01*
X45045Y67655D01*
X45095D01*
X45128Y67649D01*
X45167Y67644D01*
X45217Y67638D01*
X45273Y67627D01*
X45334Y67611D01*
X45461Y67566D01*
X45534Y67538D01*
X45600Y67505D01*
X45672Y67461D01*
X45744Y67411D01*
X45811Y67355D01*
X45878Y67294D01*
X45883Y67289D01*
X45894Y67277D01*
X45911Y67255D01*
X45933Y67228D01*
X45955Y67194D01*
X45989Y67150D01*
X46016Y67100D01*
X46050Y67044D01*
X46083Y66983D01*
X46111Y66911D01*
X46144Y66834D01*
X46166Y66756D01*
X46189Y66667D01*
X46205Y66573D01*
X46216Y66473D01*
X46222Y66367D01*
Y66362D01*
Y66345D01*
Y66323D01*
X46216Y66290D01*
Y66245D01*
X46205Y66195D01*
X46200Y66140D01*
X46189Y66084D01*
X46155Y65951D01*
X46105Y65807D01*
X46072Y65729D01*
X46039Y65657D01*
X45994Y65585D01*
X45944Y65513D01*
X45939Y65507D01*
X45928Y65490D01*
X45905Y65468D01*
X45878Y65435D01*
X45839Y65396D01*
X45789Y65352D01*
X45733Y65307D01*
X45672Y65263D01*
X45600Y65213D01*
X45522Y65168D01*
X45439Y65124D01*
X45345Y65085D01*
X45245Y65052D01*
X45140Y65030D01*
X45023Y65013D01*
X44901Y65008D01*
X44851D01*
X44812Y65013D01*
X44768Y65019D01*
X44712Y65024D01*
X44657Y65030D01*
X44590Y65041D01*
X44457Y65074D01*
X44307Y65130D01*
X44235Y65157D01*
X44163Y65196D01*
X44096Y65241D01*
X44030Y65291D01*
X44024Y65296D01*
X44013Y65302D01*
X43996Y65318D01*
X43974Y65341D01*
X43952Y65374D01*
X43918Y65407D01*
X43891Y65446D01*
X43857Y65490D01*
X43819Y65546D01*
X43785Y65601D01*
X43724Y65735D01*
X43669Y65885D01*
X43652Y65968D01*
X43635Y66057D01*
X44368Y66134D01*
Y66123D01*
X44374Y66095D01*
X44385Y66045D01*
X44401Y65990D01*
X44424Y65929D01*
X44457Y65862D01*
X44501Y65801D01*
X44551Y65740D01*
X44557Y65735D01*
X44579Y65718D01*
X44612Y65696D01*
X44657Y65668D01*
X44707Y65640D01*
X44768Y65618D01*
X44840Y65601D01*
X44912Y65596D01*
X44923D01*
X44951Y65601D01*
X44995Y65607D01*
X45051Y65618D01*
X45112Y65640D01*
X45178Y65674D01*
X45245Y65724D01*
X45306Y65785D01*
X45312Y65796D01*
X45334Y65818D01*
X45356Y65862D01*
X45389Y65929D01*
X45417Y66007D01*
X45445Y66101D01*
X45461Y66217D01*
X45467Y66351D01*
Y66356D01*
Y66367D01*
Y66384D01*
Y66412D01*
X45461Y66473D01*
X45445Y66550D01*
X45428Y66639D01*
X45400Y66728D01*
X45362Y66811D01*
X45306Y66883D01*
X45300Y66889D01*
X45278Y66911D01*
X45239Y66939D01*
X45195Y66978D01*
X45134Y67011D01*
X45062Y67039D01*
X44979Y67061D01*
X44890Y67067D01*
X44857D01*
X44834Y67061D01*
X44779Y67050D01*
X44701Y67033D01*
X44612Y67000D01*
X44518Y66950D01*
X44468Y66917D01*
X44418Y66878D01*
X44368Y66834D01*
X44318Y66784D01*
X43724Y66867D01*
X44102Y68870D01*
X46050D01*
Y68182D01*
D02*
G37*
G36*
X59652Y45764D02*
X60423D01*
Y45053D01*
X59652D01*
Y43477D01*
X59013D01*
X56566Y45142D01*
Y45764D01*
X59008D01*
Y46241D01*
X59652D01*
Y45764D01*
D02*
G37*
G36*
X59274Y43094D02*
X59307Y43083D01*
X59352Y43067D01*
X59402Y43044D01*
X59463Y43022D01*
X59530Y42994D01*
X59602Y42961D01*
X59751Y42884D01*
X59907Y42784D01*
X60057Y42661D01*
X60123Y42595D01*
X60184Y42523D01*
X60190Y42517D01*
X60195Y42506D01*
X60212Y42484D01*
X60234Y42451D01*
X60257Y42412D01*
X60279Y42362D01*
X60307Y42306D01*
X60334Y42245D01*
X60368Y42173D01*
X60395Y42095D01*
X60417Y42012D01*
X60440Y41923D01*
X60462Y41829D01*
X60479Y41723D01*
X60484Y41618D01*
X60490Y41502D01*
Y41468D01*
X60484Y41429D01*
X60479Y41374D01*
X60473Y41313D01*
X60462Y41235D01*
X60445Y41152D01*
X60423Y41058D01*
X60395Y40963D01*
X60362Y40863D01*
X60318Y40758D01*
X60268Y40652D01*
X60212Y40547D01*
X60140Y40442D01*
X60062Y40342D01*
X59968Y40247D01*
X59962Y40242D01*
X59946Y40225D01*
X59913Y40203D01*
X59874Y40170D01*
X59818Y40136D01*
X59757Y40092D01*
X59679Y40047D01*
X59591Y40003D01*
X59496Y39959D01*
X59391Y39914D01*
X59269Y39870D01*
X59141Y39836D01*
X59008Y39803D01*
X58858Y39781D01*
X58703Y39764D01*
X58536Y39759D01*
X58530D01*
X58525D01*
X58492D01*
X58442Y39764D01*
X58375D01*
X58297Y39775D01*
X58203Y39787D01*
X58103Y39798D01*
X57987Y39820D01*
X57870Y39848D01*
X57748Y39881D01*
X57626Y39920D01*
X57498Y39970D01*
X57376Y40025D01*
X57260Y40092D01*
X57149Y40164D01*
X57043Y40253D01*
X57038Y40258D01*
X57021Y40275D01*
X56993Y40303D01*
X56960Y40342D01*
X56921Y40391D01*
X56877Y40453D01*
X56827Y40519D01*
X56777Y40602D01*
X56727Y40691D01*
X56677Y40786D01*
X56632Y40897D01*
X56594Y41008D01*
X56560Y41135D01*
X56533Y41263D01*
X56516Y41407D01*
X56510Y41552D01*
Y41618D01*
X56516Y41668D01*
X56521Y41729D01*
X56533Y41796D01*
X56544Y41873D01*
X56560Y41957D01*
X56582Y42045D01*
X56610Y42140D01*
X56643Y42234D01*
X56688Y42334D01*
X56732Y42428D01*
X56788Y42517D01*
X56854Y42612D01*
X56927Y42695D01*
Y42700D01*
X56938Y42706D01*
X56954Y42722D01*
X56971Y42739D01*
X56999Y42761D01*
X57032Y42784D01*
X57110Y42845D01*
X57210Y42906D01*
X57332Y42972D01*
X57471Y43033D01*
X57631Y43089D01*
X57815Y42323D01*
X57809D01*
X57803Y42317D01*
X57787D01*
X57765Y42306D01*
X57715Y42290D01*
X57648Y42262D01*
X57570Y42223D01*
X57493Y42173D01*
X57415Y42107D01*
X57348Y42034D01*
X57343Y42023D01*
X57321Y41995D01*
X57293Y41951D01*
X57260Y41890D01*
X57226Y41812D01*
X57199Y41723D01*
X57176Y41624D01*
X57171Y41513D01*
Y41474D01*
X57176Y41440D01*
X57182Y41407D01*
X57187Y41363D01*
X57210Y41268D01*
X57249Y41157D01*
X57304Y41041D01*
X57337Y40980D01*
X57376Y40924D01*
X57426Y40869D01*
X57482Y40819D01*
X57487D01*
X57498Y40808D01*
X57515Y40797D01*
X57543Y40780D01*
X57576Y40758D01*
X57615Y40736D01*
X57665Y40713D01*
X57720Y40691D01*
X57787Y40663D01*
X57859Y40641D01*
X57942Y40619D01*
X58031Y40597D01*
X58131Y40580D01*
X58236Y40569D01*
X58353Y40564D01*
X58481Y40558D01*
X58486D01*
X58514D01*
X58553D01*
X58597Y40564D01*
X58658D01*
X58730Y40575D01*
X58802Y40580D01*
X58886Y40591D01*
X59058Y40625D01*
X59230Y40669D01*
X59313Y40697D01*
X59391Y40736D01*
X59463Y40775D01*
X59524Y40819D01*
X59530Y40824D01*
X59535Y40830D01*
X59552Y40847D01*
X59574Y40869D01*
X59618Y40924D01*
X59674Y41002D01*
X59735Y41096D01*
X59779Y41213D01*
X59818Y41346D01*
X59824Y41418D01*
X59829Y41496D01*
Y41524D01*
X59824Y41546D01*
X59818Y41607D01*
X59807Y41679D01*
X59779Y41757D01*
X59746Y41846D01*
X59702Y41934D01*
X59635Y42023D01*
X59624Y42034D01*
X59596Y42062D01*
X59552Y42101D01*
X59485Y42145D01*
X59396Y42201D01*
X59291Y42251D01*
X59163Y42301D01*
X59013Y42345D01*
X59246Y43100D01*
X59252D01*
X59274Y43094D01*
D02*
G37*
G36*
X38723Y20987D02*
X38785Y20981D01*
X38851Y20970D01*
X38929Y20959D01*
X39012Y20943D01*
X39101Y20920D01*
X39195Y20892D01*
X39290Y20859D01*
X39390Y20815D01*
X39484Y20770D01*
X39573Y20715D01*
X39667Y20648D01*
X39750Y20576D01*
X39756D01*
X39761Y20565D01*
X39778Y20548D01*
X39795Y20532D01*
X39817Y20504D01*
X39839Y20471D01*
X39900Y20393D01*
X39961Y20293D01*
X40028Y20171D01*
X40089Y20032D01*
X40144Y19871D01*
X39378Y19688D01*
Y19694D01*
X39373Y19699D01*
Y19716D01*
X39362Y19738D01*
X39345Y19788D01*
X39317Y19855D01*
X39279Y19932D01*
X39229Y20010D01*
X39162Y20088D01*
X39090Y20154D01*
X39079Y20160D01*
X39051Y20182D01*
X39007Y20210D01*
X38945Y20243D01*
X38868Y20277D01*
X38779Y20304D01*
X38679Y20326D01*
X38568Y20332D01*
X38529D01*
X38496Y20326D01*
X38463Y20321D01*
X38418Y20315D01*
X38324Y20293D01*
X38213Y20254D01*
X38096Y20199D01*
X38035Y20166D01*
X37980Y20127D01*
X37924Y20077D01*
X37874Y20021D01*
Y20016D01*
X37863Y20005D01*
X37852Y19988D01*
X37835Y19960D01*
X37813Y19927D01*
X37791Y19888D01*
X37769Y19838D01*
X37747Y19783D01*
X37719Y19716D01*
X37697Y19644D01*
X37674Y19561D01*
X37652Y19472D01*
X37636Y19372D01*
X37625Y19266D01*
X37619Y19150D01*
X37613Y19022D01*
Y19017D01*
Y18989D01*
Y18950D01*
X37619Y18906D01*
Y18845D01*
X37630Y18772D01*
X37636Y18700D01*
X37647Y18617D01*
X37680Y18445D01*
X37725Y18273D01*
X37752Y18190D01*
X37791Y18112D01*
X37830Y18040D01*
X37874Y17979D01*
X37880Y17973D01*
X37885Y17968D01*
X37902Y17951D01*
X37924Y17929D01*
X37980Y17885D01*
X38058Y17829D01*
X38152Y17768D01*
X38268Y17724D01*
X38402Y17685D01*
X38474Y17679D01*
X38551Y17674D01*
X38579D01*
X38601Y17679D01*
X38662Y17685D01*
X38735Y17696D01*
X38812Y17724D01*
X38901Y17757D01*
X38990Y17801D01*
X39079Y17868D01*
X39090Y17879D01*
X39118Y17907D01*
X39156Y17951D01*
X39201Y18018D01*
X39256Y18106D01*
X39306Y18212D01*
X39356Y18339D01*
X39401Y18489D01*
X40155Y18256D01*
Y18251D01*
X40150Y18229D01*
X40139Y18195D01*
X40122Y18151D01*
X40100Y18101D01*
X40078Y18040D01*
X40050Y17973D01*
X40017Y17901D01*
X39939Y17751D01*
X39839Y17596D01*
X39717Y17446D01*
X39650Y17379D01*
X39578Y17318D01*
X39573Y17313D01*
X39562Y17307D01*
X39539Y17291D01*
X39506Y17268D01*
X39467Y17246D01*
X39417Y17224D01*
X39362Y17196D01*
X39301Y17168D01*
X39229Y17135D01*
X39151Y17108D01*
X39068Y17085D01*
X38979Y17063D01*
X38884Y17041D01*
X38779Y17024D01*
X38674Y17019D01*
X38557Y17013D01*
X38524D01*
X38485Y17019D01*
X38429Y17024D01*
X38368Y17030D01*
X38291Y17041D01*
X38207Y17057D01*
X38113Y17080D01*
X38019Y17108D01*
X37919Y17141D01*
X37813Y17185D01*
X37708Y17235D01*
X37602Y17291D01*
X37497Y17363D01*
X37397Y17440D01*
X37303Y17535D01*
X37297Y17540D01*
X37280Y17557D01*
X37258Y17590D01*
X37225Y17629D01*
X37192Y17685D01*
X37147Y17746D01*
X37103Y17823D01*
X37058Y17912D01*
X37014Y18007D01*
X36970Y18112D01*
X36925Y18234D01*
X36892Y18362D01*
X36859Y18495D01*
X36836Y18645D01*
X36820Y18800D01*
X36814Y18967D01*
Y18972D01*
Y18978D01*
Y19011D01*
X36820Y19061D01*
Y19128D01*
X36831Y19205D01*
X36842Y19300D01*
X36853Y19400D01*
X36875Y19516D01*
X36903Y19633D01*
X36936Y19755D01*
X36975Y19877D01*
X37025Y20005D01*
X37081Y20127D01*
X37147Y20243D01*
X37220Y20354D01*
X37308Y20460D01*
X37314Y20465D01*
X37330Y20482D01*
X37358Y20510D01*
X37397Y20543D01*
X37447Y20582D01*
X37508Y20626D01*
X37575Y20676D01*
X37658Y20726D01*
X37747Y20776D01*
X37841Y20826D01*
X37952Y20870D01*
X38063Y20909D01*
X38191Y20943D01*
X38318Y20970D01*
X38463Y20987D01*
X38607Y20992D01*
X38674D01*
X38723Y20987D01*
D02*
G37*
G36*
X41959Y20937D02*
X42009Y20931D01*
X42059Y20926D01*
X42120Y20915D01*
X42181Y20898D01*
X42320Y20859D01*
X42392Y20831D01*
X42470Y20793D01*
X42542Y20754D01*
X42608Y20709D01*
X42681Y20654D01*
X42742Y20593D01*
X42747Y20587D01*
X42753Y20582D01*
X42770Y20565D01*
X42786Y20543D01*
X42831Y20487D01*
X42880Y20410D01*
X42930Y20315D01*
X42969Y20204D01*
X43003Y20082D01*
X43008Y20021D01*
X43014Y19955D01*
Y19949D01*
Y19932D01*
X43008Y19905D01*
X43003Y19871D01*
X42997Y19827D01*
X42986Y19777D01*
X42969Y19722D01*
X42947Y19660D01*
X42914Y19599D01*
X42880Y19533D01*
X42836Y19466D01*
X42781Y19400D01*
X42714Y19333D01*
X42642Y19266D01*
X42559Y19205D01*
X42459Y19144D01*
X42464D01*
X42475Y19139D01*
X42492D01*
X42514Y19128D01*
X42575Y19111D01*
X42647Y19078D01*
X42731Y19033D01*
X42819Y18978D01*
X42908Y18906D01*
X42986Y18822D01*
X42997Y18811D01*
X43019Y18778D01*
X43047Y18728D01*
X43086Y18656D01*
X43125Y18573D01*
X43152Y18467D01*
X43175Y18356D01*
X43186Y18229D01*
Y18223D01*
Y18206D01*
Y18179D01*
X43180Y18145D01*
X43175Y18101D01*
X43163Y18051D01*
X43152Y17990D01*
X43141Y17929D01*
X43097Y17796D01*
X43064Y17724D01*
X43030Y17646D01*
X42986Y17574D01*
X42936Y17502D01*
X42880Y17429D01*
X42814Y17363D01*
X42808Y17357D01*
X42797Y17346D01*
X42775Y17329D01*
X42747Y17307D01*
X42708Y17279D01*
X42669Y17252D01*
X42614Y17219D01*
X42559Y17185D01*
X42498Y17152D01*
X42425Y17119D01*
X42348Y17091D01*
X42270Y17063D01*
X42181Y17041D01*
X42092Y17024D01*
X41993Y17013D01*
X41892Y17008D01*
X41843D01*
X41804Y17013D01*
X41759Y17019D01*
X41709Y17024D01*
X41654Y17035D01*
X41587Y17046D01*
X41454Y17080D01*
X41310Y17135D01*
X41232Y17168D01*
X41166Y17207D01*
X41093Y17257D01*
X41027Y17307D01*
X41021Y17313D01*
X41010Y17324D01*
X40993Y17341D01*
X40971Y17363D01*
X40944Y17391D01*
X40916Y17429D01*
X40883Y17468D01*
X40849Y17518D01*
X40816Y17574D01*
X40777Y17629D01*
X40716Y17762D01*
X40666Y17918D01*
X40644Y18001D01*
X40633Y18090D01*
X41343Y18179D01*
Y18173D01*
Y18168D01*
X41349Y18134D01*
X41360Y18084D01*
X41376Y18023D01*
X41404Y17957D01*
X41432Y17885D01*
X41476Y17818D01*
X41526Y17757D01*
X41532Y17751D01*
X41554Y17735D01*
X41587Y17712D01*
X41626Y17690D01*
X41682Y17662D01*
X41743Y17640D01*
X41809Y17624D01*
X41887Y17618D01*
X41898D01*
X41926Y17624D01*
X41965Y17629D01*
X42020Y17640D01*
X42081Y17662D01*
X42142Y17690D01*
X42209Y17735D01*
X42270Y17790D01*
X42276Y17796D01*
X42298Y17823D01*
X42320Y17862D01*
X42353Y17912D01*
X42381Y17979D01*
X42409Y18062D01*
X42425Y18156D01*
X42431Y18262D01*
Y18267D01*
Y18273D01*
Y18306D01*
X42425Y18356D01*
X42414Y18423D01*
X42392Y18495D01*
X42364Y18567D01*
X42325Y18639D01*
X42276Y18706D01*
X42270Y18711D01*
X42248Y18734D01*
X42214Y18761D01*
X42176Y18789D01*
X42120Y18822D01*
X42059Y18845D01*
X41993Y18867D01*
X41915Y18872D01*
X41859D01*
X41820Y18867D01*
X41770Y18861D01*
X41709Y18850D01*
X41648Y18834D01*
X41576Y18817D01*
X41654Y19411D01*
X41704D01*
X41759Y19416D01*
X41826Y19422D01*
X41898Y19439D01*
X41976Y19461D01*
X42048Y19494D01*
X42115Y19538D01*
X42120Y19544D01*
X42142Y19566D01*
X42164Y19594D01*
X42198Y19638D01*
X42226Y19688D01*
X42253Y19749D01*
X42270Y19821D01*
X42276Y19905D01*
Y19916D01*
Y19938D01*
X42270Y19971D01*
X42259Y20016D01*
X42248Y20066D01*
X42226Y20116D01*
X42198Y20171D01*
X42159Y20215D01*
X42153Y20221D01*
X42137Y20232D01*
X42115Y20254D01*
X42076Y20277D01*
X42031Y20293D01*
X41981Y20315D01*
X41915Y20326D01*
X41848Y20332D01*
X41815D01*
X41781Y20326D01*
X41737Y20315D01*
X41687Y20299D01*
X41632Y20277D01*
X41576Y20243D01*
X41526Y20199D01*
X41521Y20193D01*
X41504Y20177D01*
X41482Y20143D01*
X41454Y20099D01*
X41426Y20049D01*
X41404Y19982D01*
X41382Y19905D01*
X41365Y19816D01*
X40688Y19927D01*
Y19932D01*
X40694Y19943D01*
Y19960D01*
X40699Y19988D01*
X40716Y20049D01*
X40738Y20132D01*
X40771Y20221D01*
X40805Y20315D01*
X40849Y20404D01*
X40899Y20487D01*
X40905Y20498D01*
X40927Y20521D01*
X40960Y20560D01*
X41005Y20609D01*
X41060Y20660D01*
X41127Y20715D01*
X41210Y20770D01*
X41299Y20820D01*
X41304D01*
X41310Y20826D01*
X41343Y20837D01*
X41399Y20859D01*
X41465Y20881D01*
X41548Y20904D01*
X41648Y20926D01*
X41754Y20937D01*
X41870Y20943D01*
X41920D01*
X41959Y20937D01*
D02*
G37*
G36*
X2743Y65484D02*
X2804Y65479D01*
X2871Y65468D01*
X2948Y65456D01*
X3032Y65440D01*
X3120Y65417D01*
X3215Y65390D01*
X3309Y65356D01*
X3409Y65312D01*
X3503Y65268D01*
X3592Y65212D01*
X3686Y65146D01*
X3770Y65073D01*
X3775D01*
X3781Y65062D01*
X3797Y65046D01*
X3814Y65029D01*
X3836Y65001D01*
X3858Y64968D01*
X3920Y64890D01*
X3981Y64790D01*
X4047Y64668D01*
X4108Y64530D01*
X4164Y64369D01*
X3398Y64185D01*
Y64191D01*
X3392Y64196D01*
Y64213D01*
X3381Y64235D01*
X3365Y64285D01*
X3337Y64352D01*
X3298Y64430D01*
X3248Y64507D01*
X3181Y64585D01*
X3109Y64652D01*
X3098Y64657D01*
X3070Y64679D01*
X3026Y64707D01*
X2965Y64740D01*
X2887Y64774D01*
X2798Y64802D01*
X2699Y64824D01*
X2588Y64829D01*
X2549D01*
X2515Y64824D01*
X2482Y64818D01*
X2438Y64813D01*
X2343Y64790D01*
X2232Y64751D01*
X2116Y64696D01*
X2055Y64663D01*
X1999Y64624D01*
X1944Y64574D01*
X1894Y64518D01*
Y64513D01*
X1883Y64502D01*
X1872Y64485D01*
X1855Y64457D01*
X1833Y64424D01*
X1811Y64385D01*
X1788Y64335D01*
X1766Y64280D01*
X1738Y64213D01*
X1716Y64141D01*
X1694Y64058D01*
X1672Y63969D01*
X1655Y63869D01*
X1644Y63764D01*
X1639Y63647D01*
X1633Y63519D01*
Y63514D01*
Y63486D01*
Y63447D01*
X1639Y63403D01*
Y63342D01*
X1650Y63270D01*
X1655Y63197D01*
X1666Y63114D01*
X1699Y62942D01*
X1744Y62770D01*
X1772Y62687D01*
X1811Y62609D01*
X1849Y62537D01*
X1894Y62476D01*
X1899Y62471D01*
X1905Y62465D01*
X1922Y62448D01*
X1944Y62426D01*
X1999Y62382D01*
X2077Y62326D01*
X2171Y62265D01*
X2288Y62221D01*
X2421Y62182D01*
X2493Y62176D01*
X2571Y62171D01*
X2599D01*
X2621Y62176D01*
X2682Y62182D01*
X2754Y62193D01*
X2832Y62221D01*
X2921Y62254D01*
X3009Y62298D01*
X3098Y62365D01*
X3109Y62376D01*
X3137Y62404D01*
X3176Y62448D01*
X3220Y62515D01*
X3276Y62604D01*
X3326Y62709D01*
X3376Y62837D01*
X3420Y62987D01*
X4175Y62753D01*
Y62748D01*
X4169Y62726D01*
X4158Y62692D01*
X4141Y62648D01*
X4119Y62598D01*
X4097Y62537D01*
X4069Y62471D01*
X4036Y62398D01*
X3958Y62248D01*
X3858Y62093D01*
X3736Y61943D01*
X3670Y61877D01*
X3598Y61816D01*
X3592Y61810D01*
X3581Y61804D01*
X3559Y61788D01*
X3525Y61766D01*
X3487Y61743D01*
X3437Y61721D01*
X3381Y61694D01*
X3320Y61666D01*
X3248Y61632D01*
X3170Y61605D01*
X3087Y61582D01*
X2998Y61560D01*
X2904Y61538D01*
X2798Y61521D01*
X2693Y61516D01*
X2576Y61510D01*
X2543D01*
X2504Y61516D01*
X2449Y61521D01*
X2388Y61527D01*
X2310Y61538D01*
X2227Y61555D01*
X2132Y61577D01*
X2038Y61605D01*
X1938Y61638D01*
X1833Y61682D01*
X1727Y61732D01*
X1622Y61788D01*
X1516Y61860D01*
X1417Y61938D01*
X1322Y62032D01*
X1317Y62038D01*
X1300Y62054D01*
X1278Y62088D01*
X1244Y62126D01*
X1211Y62182D01*
X1167Y62243D01*
X1122Y62321D01*
X1078Y62409D01*
X1034Y62504D01*
X989Y62609D01*
X945Y62731D01*
X911Y62859D01*
X878Y62992D01*
X856Y63142D01*
X839Y63297D01*
X834Y63464D01*
Y63469D01*
Y63475D01*
Y63508D01*
X839Y63558D01*
Y63625D01*
X850Y63703D01*
X862Y63797D01*
X873Y63897D01*
X895Y64013D01*
X922Y64130D01*
X956Y64252D01*
X995Y64374D01*
X1045Y64502D01*
X1100Y64624D01*
X1167Y64740D01*
X1239Y64851D01*
X1328Y64957D01*
X1333Y64962D01*
X1350Y64979D01*
X1378Y65007D01*
X1417Y65040D01*
X1466Y65079D01*
X1527Y65123D01*
X1594Y65173D01*
X1677Y65223D01*
X1766Y65273D01*
X1860Y65323D01*
X1971Y65368D01*
X2083Y65406D01*
X2210Y65440D01*
X2338Y65468D01*
X2482Y65484D01*
X2626Y65490D01*
X2693D01*
X2743Y65484D01*
D02*
G37*
G36*
X6040Y65434D02*
X6090Y65429D01*
X6145Y65423D01*
X6206Y65412D01*
X6273Y65401D01*
X6417Y65362D01*
X6561Y65307D01*
X6639Y65273D01*
X6706Y65234D01*
X6778Y65184D01*
X6839Y65129D01*
X6844Y65123D01*
X6855Y65118D01*
X6867Y65096D01*
X6889Y65073D01*
X6916Y65046D01*
X6944Y65007D01*
X6972Y64968D01*
X7005Y64918D01*
X7061Y64807D01*
X7116Y64679D01*
X7139Y64607D01*
X7150Y64530D01*
X7161Y64446D01*
X7166Y64363D01*
Y64352D01*
Y64319D01*
X7161Y64269D01*
X7155Y64208D01*
X7144Y64130D01*
X7127Y64047D01*
X7105Y63958D01*
X7072Y63869D01*
X7066Y63858D01*
X7055Y63830D01*
X7033Y63780D01*
X7000Y63719D01*
X6961Y63647D01*
X6911Y63564D01*
X6850Y63475D01*
X6778Y63381D01*
X6772Y63375D01*
X6750Y63347D01*
X6717Y63309D01*
X6667Y63253D01*
X6600Y63186D01*
X6517Y63098D01*
X6417Y63003D01*
X6295Y62887D01*
X6289Y62881D01*
X6278Y62876D01*
X6262Y62859D01*
X6239Y62837D01*
X6178Y62781D01*
X6106Y62715D01*
X6034Y62643D01*
X5962Y62570D01*
X5895Y62509D01*
X5873Y62482D01*
X5851Y62459D01*
X5845Y62454D01*
X5834Y62443D01*
X5818Y62420D01*
X5795Y62393D01*
X5745Y62332D01*
X5701Y62260D01*
X7166D01*
Y61577D01*
X4586D01*
Y61582D01*
Y61594D01*
X4591Y61616D01*
X4597Y61643D01*
X4602Y61677D01*
X4608Y61716D01*
X4630Y61816D01*
X4663Y61927D01*
X4708Y62049D01*
X4763Y62182D01*
X4835Y62309D01*
Y62315D01*
X4846Y62326D01*
X4857Y62348D01*
X4880Y62371D01*
X4902Y62409D01*
X4935Y62448D01*
X4974Y62498D01*
X5018Y62554D01*
X5068Y62620D01*
X5129Y62687D01*
X5196Y62765D01*
X5274Y62848D01*
X5357Y62931D01*
X5451Y63025D01*
X5551Y63125D01*
X5662Y63231D01*
X5668Y63236D01*
X5684Y63253D01*
X5707Y63275D01*
X5740Y63309D01*
X5784Y63342D01*
X5829Y63386D01*
X5929Y63486D01*
X6028Y63592D01*
X6128Y63697D01*
X6173Y63741D01*
X6217Y63791D01*
X6250Y63830D01*
X6273Y63863D01*
X6278Y63875D01*
X6295Y63902D01*
X6323Y63947D01*
X6350Y64008D01*
X6378Y64074D01*
X6406Y64152D01*
X6423Y64230D01*
X6428Y64313D01*
Y64319D01*
Y64324D01*
Y64352D01*
X6423Y64402D01*
X6412Y64457D01*
X6395Y64518D01*
X6373Y64579D01*
X6339Y64640D01*
X6295Y64696D01*
X6289Y64702D01*
X6273Y64718D01*
X6239Y64740D01*
X6201Y64763D01*
X6145Y64785D01*
X6084Y64807D01*
X6012Y64824D01*
X5929Y64829D01*
X5890D01*
X5845Y64824D01*
X5795Y64813D01*
X5734Y64796D01*
X5673Y64768D01*
X5612Y64735D01*
X5557Y64691D01*
X5551Y64685D01*
X5535Y64663D01*
X5512Y64629D01*
X5490Y64579D01*
X5462Y64518D01*
X5440Y64435D01*
X5418Y64341D01*
X5407Y64230D01*
X4674Y64302D01*
Y64307D01*
X4680Y64330D01*
Y64358D01*
X4691Y64402D01*
X4696Y64452D01*
X4713Y64507D01*
X4730Y64568D01*
X4747Y64640D01*
X4802Y64779D01*
X4869Y64924D01*
X4913Y64996D01*
X4963Y65062D01*
X5018Y65118D01*
X5080Y65173D01*
X5085Y65179D01*
X5096Y65184D01*
X5113Y65196D01*
X5141Y65218D01*
X5174Y65234D01*
X5218Y65257D01*
X5263Y65284D01*
X5318Y65307D01*
X5379Y65334D01*
X5446Y65356D01*
X5590Y65401D01*
X5762Y65429D01*
X5851Y65434D01*
X5945Y65440D01*
X6001D01*
X6040Y65434D01*
D02*
G37*
%LPC*%
G36*
X67549Y72796D02*
X66661D01*
Y71819D01*
X67415D01*
X67527Y71825D01*
X67643Y71830D01*
X67760Y71836D01*
X67809Y71841D01*
X67854Y71847D01*
X67898Y71858D01*
X67926Y71864D01*
X67932D01*
X67948Y71875D01*
X67976Y71886D01*
X68004Y71902D01*
X68076Y71952D01*
X68109Y71986D01*
X68142Y72025D01*
X68148Y72030D01*
X68154Y72047D01*
X68170Y72069D01*
X68187Y72102D01*
X68198Y72147D01*
X68215Y72197D01*
X68220Y72252D01*
X68226Y72313D01*
Y72324D01*
Y72346D01*
X68220Y72380D01*
X68215Y72424D01*
X68198Y72474D01*
X68181Y72524D01*
X68154Y72579D01*
X68120Y72624D01*
X68115Y72629D01*
X68104Y72646D01*
X68076Y72663D01*
X68043Y72690D01*
X68004Y72718D01*
X67954Y72740D01*
X67893Y72763D01*
X67826Y72779D01*
X67821D01*
X67804Y72785D01*
X67771D01*
X67721Y72790D01*
X67599D01*
X67549Y72796D01*
D02*
G37*
G36*
X62068Y57260D02*
X61180D01*
Y56283D01*
X61935D01*
X62046Y56289D01*
X62163Y56294D01*
X62279Y56300D01*
X62329Y56305D01*
X62373Y56311D01*
X62418Y56322D01*
X62445Y56327D01*
X62451D01*
X62468Y56339D01*
X62495Y56350D01*
X62523Y56366D01*
X62595Y56416D01*
X62629Y56450D01*
X62662Y56488D01*
X62668Y56494D01*
X62673Y56511D01*
X62690Y56533D01*
X62706Y56566D01*
X62717Y56611D01*
X62734Y56660D01*
X62740Y56716D01*
X62745Y56777D01*
Y56788D01*
Y56810D01*
X62740Y56844D01*
X62734Y56888D01*
X62717Y56938D01*
X62701Y56988D01*
X62673Y57043D01*
X62640Y57088D01*
X62634Y57093D01*
X62623Y57110D01*
X62595Y57127D01*
X62562Y57154D01*
X62523Y57182D01*
X62473Y57204D01*
X62412Y57227D01*
X62346Y57243D01*
X62340D01*
X62323Y57249D01*
X62290D01*
X62240Y57254D01*
X62118D01*
X62068Y57260D01*
D02*
G37*
G36*
X62371Y33260D02*
X61483D01*
Y32283D01*
X62237D01*
X62348Y32289D01*
X62465Y32294D01*
X62581Y32300D01*
X62631Y32305D01*
X62676Y32311D01*
X62720Y32322D01*
X62748Y32327D01*
X62753D01*
X62770Y32339D01*
X62798Y32350D01*
X62826Y32366D01*
X62898Y32416D01*
X62931Y32449D01*
X62964Y32488D01*
X62970Y32494D01*
X62976Y32511D01*
X62992Y32533D01*
X63009Y32566D01*
X63020Y32610D01*
X63037Y32660D01*
X63042Y32716D01*
X63048Y32777D01*
Y32788D01*
Y32810D01*
X63042Y32844D01*
X63037Y32888D01*
X63020Y32938D01*
X63003Y32988D01*
X62976Y33043D01*
X62942Y33088D01*
X62937Y33093D01*
X62926Y33110D01*
X62898Y33127D01*
X62865Y33154D01*
X62826Y33182D01*
X62776Y33204D01*
X62715Y33226D01*
X62648Y33243D01*
X62643D01*
X62626Y33249D01*
X62593D01*
X62543Y33254D01*
X62420D01*
X62371Y33260D01*
D02*
G37*
G36*
X59008Y45053D02*
X57687D01*
X59008Y44160D01*
Y45053D01*
D02*
G37*
%LPD*%
D10*
X122968Y38094D02*
X121984Y37831D01*
X121264Y37110D01*
X121000Y36126D01*
X129595D02*
X129331Y37110D01*
X128610Y37831D01*
X127626Y38094D01*
X121000Y14000D02*
X121264Y13016D01*
X121984Y12295D01*
X122968Y12032D01*
X127626D02*
X128610Y12295D01*
X129331Y13016D01*
X129595Y14000D01*
Y36126D01*
X121000Y14000D02*
Y36126D01*
X122968Y38094D02*
X127626D01*
X122968Y12032D02*
X127626D01*
D11*
X48906Y38472D02*
Y47528D01*
X37095Y38472D02*
X48906D01*
X37095D02*
Y47528D01*
X48906D01*
X49102Y48906D02*
Y54614D01*
X43433Y27059D02*
X47567D01*
X43433Y21941D02*
X47567D01*
X43433Y58441D02*
X47567D01*
X43433Y63559D02*
X47567D01*
X9819Y63004D02*
X12181D01*
X11000Y61823D02*
Y64185D01*
X1945Y29539D02*
X4937D01*
X17063D02*
X20055D01*
Y59461D01*
X1945D02*
X4937D01*
X17063D02*
X20055D01*
X1945Y29539D02*
Y59461D01*
X58264Y55106D02*
Y55894D01*
X53736Y55106D02*
Y55894D01*
Y30606D02*
Y31394D01*
X58264Y30606D02*
Y31394D01*
M02*
